<svg enable-background="new 0 0 74.695 72.346" height="72.346" viewBox="0 0 74.695 72.346" width="74.695" xmlns="http://www.w3.org/2000/svg"><path d="m29.503 65.345h16v-23.938h-16zm13.063-2.938h-10.125v-18.062h10.125z"/><path d="m72.62 39.44 2.075-2.078-9.907-9.913v-26.979h-13.814v13.161l-13.625-13.631-37.349 37.363 2.077 2.078 7.832-7.832v37.799h-3.938v2.938h63.875v-2.938h-5.059v-37.8zm-18.707-36.032h7.938v21.104l-7.938-7.94zm7.937 65.999h-49.004v-40.736l24.502-24.502 24.502 24.502z"/><path d="m29.753 27.21c0 4.28 3.47 7.75 7.75 7.75s7.75-3.47 7.75-7.75c0-4.279-3.47-7.75-7.75-7.75s-7.75 3.47-7.75 7.75zm7.75-4.969c2.745 0 4.97 2.225 4.97 4.97s-2.225 4.971-4.97 4.971-4.97-2.226-4.97-4.971 2.226-4.97 4.97-4.97z"/><path d="m16.909 41.407h3v3.938h-3z"/><path d="m22.846 41.407h3v3.938h-3z"/><path d="m16.909 47.407h3v3.938h-3z"/><path d="m22.846 47.407h3v3.938h-3z"/><path d="m48.846 41.407h3v3.938h-3z"/><path d="m54.784 41.407h3v3.938h-3z"/><path d="m48.846 47.407h3v3.938h-3z"/><path d="m54.784 47.407h3v3.938h-3z"/></svg>